<?xml version="1.0"?><svg width="744.09448819" height="1052.3622047" xmlns="http://www.w3.org/2000/svg">
 <title>better cloud</title>
 <g>
  <title>Layer 1</title>
  <g id="layer1">
   <path d="m489.358459,199.983673c-41.243805,-5.993958 -82.982269,0.865524 -111.796539,15.767319c-15.05423,-9.814301 -35.438477,-17.388947 -59.888519,-20.942001c-62.924835,-9.144577 -127.748566,11.154129 -144.609314,45.282944c-1.238998,2.507797 -1.56517,5.029648 -2.22963,7.537872c-56.666885,-3.194885 -110.888168,16.045761 -126.100307,46.837997c-15.073145,30.510498 13.370644,61.708435 64.493809,74.535828c-2.7789,3.268372 -5.37001,6.635498 -7.145164,10.228241c-16.860489,34.128815 20.602753,69.211975 83.527695,78.356567c30.820786,4.479736 61.967819,1.849243 87.823471,-5.959229c14.249756,16.534149 40.817719,29.841583 75.841064,34.931122c49.970612,7.262299 100.678162,-4.241791 128.054077,-26.291412c11.089325,4.257874 23.415466,7.779968 37.300232,9.798187c62.924988,9.144592 127.609131,-11.174805 144.470032,-45.303558c8.478516,-17.161743 3.232239,-34.529144 -12.072876,-48.762909c15.147095,-7.833649 27.00354,-17.756653 32.812744,-29.515594c16.860718,-34.129242 -20.602661,-69.212402 -83.527527,-78.356995c-6.623962,-0.962189 -13.259033,-1.504272 -19.86554,-1.83313c3.915588,-29.970474 -31.598877,-58.247055 -87.087708,-66.311249z" id="path4952" stroke-dashoffset="0" stroke-miterlimit="4" stroke-linejoin="round" stroke-width="17.790461" stroke="#000000" fill="#ffffff"/>
  </g>
 </g>
</svg>